<svg width="267" height="32" viewBox="0 0 267 32" fill="none" xmlns="http://www.w3.org/2000/svg">
    <rect y="4.98438" width="21.2086" height="22.0322" rx="8.9418" fill="#EEEEEE" />
    <path fillRule="evenodd" clipRule="evenodd"
        d="M1.5331 17.5243C1.10028 17.3233 1.1003 16.6399 1.53313 16.4388C4.67072 14.9815 7.20616 12.4463 8.6639 9.30893C8.86496 8.87619 9.54818 8.87619 9.74924 9.30894C11.2069 12.4462 13.7421 14.9813 16.8796 16.4388C17.3124 16.6398 17.3124 17.3232 16.8796 17.5243C13.7419 18.9818 11.2065 21.5171 9.74895 24.6547C9.54789 25.0875 8.86456 25.0875 8.6635 24.6547C7.20594 21.5172 4.67062 18.9819 1.5331 17.5243Z"
        fill="#0062FF" />
    <path fillRule="evenodd" clipRule="evenodd"
        d="M13.6116 10.2282C13.357 10.0925 13.357 9.66395 13.6116 9.52825C14.6106 8.9957 15.4322 8.17418 15.9648 7.17525C16.1005 6.92075 16.529 6.92075 16.6647 7.17526C17.1973 8.17411 18.0188 8.99559 19.0177 9.52814C19.2723 9.66386 19.2723 10.0924 19.0177 10.2281C18.0187 10.7607 17.1971 11.5823 16.6645 12.5813C16.5288 12.8359 16.1003 12.8359 15.9645 12.5813C15.432 11.5824 14.6105 10.7609 13.6116 10.2282Z"
        fill="#0062FF" />
    <path
        d="M25.3063 24H21.7255L27.1816 8.1953H31.4877L36.936 24H33.3553L29.3964 11.8069H29.2729L25.3063 24ZM25.0825 17.7877H33.5405V20.3961H25.0825V17.7877ZM38.8383 24V8.1953H45.0737C46.2725 8.1953 47.2937 8.42424 48.1375 8.88212C48.9812 9.33486 49.6243 9.9651 50.0667 10.7728C50.5143 11.5754 50.7381 12.5015 50.7381 13.551C50.7381 14.6005 50.5118 15.5266 50.059 16.3292C49.6063 17.1317 48.9503 17.7568 48.0912 18.2044C47.2371 18.652 46.203 18.8758 44.9889 18.8758H41.0145V16.198H44.4487C45.0918 16.198 45.6217 16.0874 46.0384 15.8661C46.4603 15.6398 46.7741 15.3285 46.9799 14.9324C47.1908 14.5311 47.2963 14.0706 47.2963 13.551C47.2963 13.0262 47.1908 12.5683 46.9799 12.1773C46.7741 11.7812 46.4603 11.4751 46.0384 11.259C45.6165 11.0378 45.0815 10.9272 44.4332 10.9272H42.1798V24H38.8383ZM56.2501 8.1953V24H52.9086V8.1953H56.2501ZM64.5692 8.1953H66.8534L72.2246 21.3144H72.4098L77.7809 8.1953H80.0652V24H78.2748V11.9921H78.1205L73.1815 24H71.4529L66.5139 11.9921H66.3595V24H64.5692V8.1953ZM84.5508 24H82.5443L88.3476 8.1953H90.3232L96.1265 24H94.12L89.3971 10.6957H89.2737L84.5508 24ZM85.2916 17.8263H93.3792V19.5241H85.2916V17.8263ZM111.121 8.1953V24H109.269L100.656 11.5908H100.502V24H98.5883V8.1953H100.44L109.084 20.6353H109.238V8.1953H111.121ZM115.599 24H113.592L119.396 8.1953H121.371L127.174 24H125.168L120.445 10.6957H120.322L115.599 24ZM116.34 17.8263H124.427V19.5241H116.34V17.8263ZM139.697 13.1343C139.528 12.6146 139.304 12.149 139.026 11.7375C138.753 11.3207 138.427 10.9658 138.046 10.6725C137.67 10.3792 137.243 10.1555 136.765 10.0011C136.286 9.84677 135.762 9.76959 135.191 9.76959C134.254 9.76959 133.403 10.0114 132.636 10.495C131.87 10.9786 131.26 11.6912 130.807 12.6327C130.355 13.5741 130.128 14.7291 130.128 16.0976C130.128 17.4662 130.357 18.6212 130.815 19.5626C131.273 20.5041 131.893 21.2167 132.675 21.7003C133.457 22.1839 134.337 22.4257 135.314 22.4257C136.22 22.4257 137.017 22.2328 137.706 21.8469C138.401 21.4559 138.941 20.9054 139.327 20.1955C139.718 19.4803 139.914 18.6392 139.914 17.6719L140.5 17.7954H135.746V16.0976H141.766V17.7954C141.766 19.097 141.488 20.2289 140.932 21.191C140.382 22.153 139.62 22.899 138.648 23.4289C137.681 23.9537 136.569 24.2161 135.314 24.2161C133.915 24.2161 132.685 23.8868 131.625 23.2283C130.571 22.5698 129.747 21.6334 129.156 20.4192C128.569 19.2051 128.276 17.7646 128.276 16.0976C128.276 14.8475 128.443 13.7233 128.778 12.7253C129.117 11.722 129.596 10.868 130.213 10.1632C130.83 9.45834 131.561 8.91814 132.405 8.54257C133.248 8.167 134.177 7.97922 135.191 7.97922C136.024 7.97922 136.801 8.10526 137.521 8.35736C138.247 8.60431 138.892 8.95672 139.458 9.41461C140.029 9.86734 140.505 10.4101 140.886 11.0429C141.267 11.6706 141.529 12.3677 141.673 13.1343H139.697ZM145.044 24V8.1953H154.582V9.89307H146.957V15.2333H154.088V16.9311H146.957V22.3022H154.705V24H145.044ZM158.031 8.1953H160.316L165.687 21.3144H165.872L171.243 8.1953H173.527V24H171.737V11.9921H171.583L166.644 24H164.915L159.976 11.9921H159.822V24H158.031V8.1953ZM177.365 24V8.1953H186.903V9.89307H179.279V15.2333H186.409V16.9311H179.279V22.3022H187.027V24H177.365ZM202.885 8.1953V24H201.033L192.421 11.5908H192.267V24H190.353V8.1953H192.205L200.848 20.6353H201.002V8.1953H202.885ZM205.851 9.89307V8.1953H217.704V9.89307H212.734V24H210.821V9.89307H205.851ZM226.336 24H224.329L230.133 8.1953H232.108L237.912 24H235.905L231.182 10.6957H231.059L226.336 24ZM227.077 17.8263H235.164V19.5241H227.077V17.8263ZM240.373 24V8.1953H245.714C246.953 8.1953 247.967 8.4191 248.754 8.86669C249.546 9.30914 250.133 9.9085 250.514 10.6648C250.894 11.4211 251.085 12.2648 251.085 13.196C251.085 14.1272 250.894 14.9735 250.514 15.7349C250.138 16.4964 249.557 17.1034 248.77 17.5562C247.982 18.0038 246.974 18.2276 245.744 18.2276H241.917V16.5298H245.683C246.532 16.5298 247.213 16.3832 247.728 16.0899C248.242 15.7967 248.615 15.4005 248.847 14.9015C249.083 14.3973 249.202 13.8288 249.202 13.196C249.202 12.5632 249.083 11.9973 248.847 11.4982C248.615 10.9992 248.24 10.6082 247.72 10.3252C247.2 10.0371 246.511 9.89307 245.652 9.89307H242.287V24H240.373ZM254.168 24V8.1953H259.508C260.748 8.1953 261.761 8.4191 262.549 8.86669C263.341 9.30914 263.927 9.9085 264.308 10.6648C264.689 11.4211 264.879 12.2648 264.879 13.196C264.879 14.1272 264.689 14.9735 264.308 15.7349C263.932 16.4964 263.351 17.1034 262.564 17.5562C261.777 18.0038 260.768 18.2276 259.539 18.2276H255.711V16.5298H259.477C260.326 16.5298 261.008 16.3832 261.522 16.0899C262.037 15.7967 262.41 15.4005 262.641 14.9015C262.878 14.3973 262.996 13.8288 262.996 13.196C262.996 12.5632 262.878 11.9973 262.641 11.4982C262.41 10.9992 262.034 10.6082 261.514 10.3252C260.995 10.0371 260.305 9.89307 259.446 9.89307H256.082V24H254.168Z"
        fill="#0062FF" />
</svg>
    