<svg width="154" height="37" viewBox="0 0 154 37" fill="none" xmlns="http://www.w3.org/2000/svg">
    <path fill-rule="evenodd" clip-rule="evenodd"
        d="M17.0711 4.64965C18.9464 5.55708 20 6.78783 20 8.07113H10L0 8.07113C0 6.78783 1.05357 5.55708 2.92893 4.64965C4.8043 3.74221 7.34784 3.23242 10 3.23242C12.6522 3.23242 15.1957 3.74221 17.0711 4.64965ZM2.92893 31.8152C1.05357 30.9078 0 29.677 0 28.3937H10L20 28.3937C20 29.677 18.9464 30.9078 17.0711 31.8152C15.1957 32.7226 12.6522 33.2324 10 33.2324C7.34783 33.2324 4.8043 32.7226 2.92893 31.8152ZM23 20.6518V24.5227H17V20.6518H23ZM6 11.9421H0V15.8131H6V11.9421ZM11 11.9421H23V15.8131H11V11.9421ZM12 20.6518H0V24.5227H12V20.6518Z"
        fill="#A6A6A6" />
    <path
        d="M41.054 29.5201C39.7685 29.5201 38.6179 29.1898 37.6023 28.5293C36.5866 27.8688 35.7841 26.91 35.1946 25.6529C34.6051 24.3958 34.3104 22.8688 34.3104 21.0719C34.3104 19.2537 34.6087 17.7196 35.2053 16.4696C35.8089 15.2125 36.6222 14.2644 37.6449 13.6252C38.6676 12.9789 39.8075 12.6557 41.0646 12.6557C42.0234 12.6557 42.8118 12.8191 43.4297 13.1458C44.0476 13.4654 44.5376 13.8524 44.8999 14.307C45.2621 14.7544 45.5426 15.177 45.7415 15.5748H45.9013V7.41424H49.7685V29.2324H45.9759V26.6543H45.7415C45.5426 27.052 45.255 27.4746 44.8786 27.9221C44.5021 28.3624 44.005 28.7388 43.3871 29.0513C42.7692 29.3638 41.9915 29.5201 41.054 29.5201ZM42.13 26.356C42.9467 26.356 43.6428 26.1358 44.218 25.6955C44.7933 25.248 45.2301 24.6266 45.5284 23.8311C45.8267 23.0357 45.9759 22.1088 45.9759 21.0506C45.9759 19.9924 45.8267 19.0726 45.5284 18.2914C45.2372 17.5101 44.804 16.9029 44.2287 16.4696C43.6605 16.0364 42.9609 15.8198 42.13 15.8198C41.2706 15.8198 40.5533 16.0435 39.978 16.4909C39.4027 16.9384 38.9695 17.5563 38.6783 18.3446C38.3871 19.133 38.2415 20.035 38.2415 21.0506C38.2415 22.0733 38.3871 22.986 38.6783 23.7885C38.9766 24.584 39.4134 25.2125 39.9886 25.6742C40.571 26.1287 41.2848 26.356 42.13 26.356ZM61.1223 29.552C59.4817 29.552 58.0648 29.2111 56.8716 28.5293C55.6855 27.8404 54.7729 26.8674 54.1337 25.6103C53.4945 24.3461 53.1749 22.8581 53.1749 21.1465C53.1749 19.4632 53.4945 17.986 54.1337 16.7147C54.78 15.4363 55.682 14.4419 56.8397 13.7317C57.9973 13.0144 59.3574 12.6557 60.9199 12.6557C61.9284 12.6557 62.8801 12.8191 63.775 13.1458C64.677 13.4654 65.4725 13.9625 66.1614 14.6373C66.8574 15.312 67.4043 16.1713 67.802 17.2154C68.1998 18.2523 68.3986 19.4881 68.3986 20.9228V22.1053H54.986V19.5059H64.7019C64.6948 18.7672 64.535 18.1103 64.2225 17.535C63.91 16.9526 63.4732 16.4945 62.9121 16.1607C62.3581 15.8269 61.7118 15.66 60.9732 15.66C60.1848 15.66 59.4924 15.8517 58.8958 16.2353C58.2992 16.6117 57.834 17.1088 57.5002 17.7267C57.1735 18.3375 57.0066 19.0087 56.9995 19.7402V22.0094C56.9995 22.9611 57.1735 23.7779 57.5215 24.4597C57.8695 25.1344 58.356 25.6529 58.981 26.0151C59.606 26.3702 60.3375 26.5478 61.1756 26.5478C61.7367 26.5478 62.2445 26.4696 62.699 26.3134C63.1536 26.15 63.5478 25.9121 63.8816 25.5996C64.2154 25.2871 64.4675 24.9 64.638 24.4384L68.2388 24.8432C68.0115 25.7949 67.5783 26.6259 66.9391 27.3361C66.307 28.0392 65.4973 28.5861 64.5101 28.9767C63.5229 29.3603 62.3936 29.552 61.1223 29.552ZM84.5945 17.1941L81.0788 17.5776C80.9794 17.2225 80.8054 16.8887 80.5568 16.5762C80.3153 16.2637 79.9886 16.0115 79.5767 15.8198C79.1648 15.628 78.6605 15.5321 78.0639 15.5321C77.2614 15.5321 76.5866 15.7061 76.0398 16.0542C75.5 16.4022 75.2337 16.8532 75.2408 17.4071C75.2337 17.883 75.4077 18.2701 75.7628 18.5684C76.125 18.8667 76.7216 19.1117 77.5526 19.3034L80.3438 19.9C81.892 20.2338 83.0426 20.763 83.7955 21.4874C84.5554 22.2118 84.9389 23.16 84.946 24.3319C84.9389 25.3617 84.6371 26.2708 84.0405 27.0591C83.451 27.8404 82.6307 28.4512 81.5795 28.8915C80.5284 29.3319 79.321 29.552 77.9574 29.552C75.9545 29.552 74.3423 29.133 73.1207 28.2949C71.8991 27.4498 71.1712 26.2743 70.9368 24.7686L74.6974 24.4064C74.8679 25.1451 75.2301 25.7026 75.7841 26.079C76.3381 26.4554 77.0589 26.6436 77.9467 26.6436C78.8629 26.6436 79.598 26.4554 80.152 26.079C80.7131 25.7026 80.9936 25.2374 80.9936 24.6834C80.9936 24.2147 80.8125 23.8276 80.4503 23.5222C80.0952 23.2168 79.5412 22.9824 78.7884 22.8191L75.9972 22.2331C74.4276 21.9064 73.2663 21.356 72.5135 20.5819C71.7607 19.8006 71.3878 18.8134 71.3949 17.6202C71.3878 16.6117 71.6612 15.7381 72.2152 14.9995C72.7763 14.2537 73.554 13.6784 74.5483 13.2736C75.5497 12.8617 76.7038 12.6557 78.0107 12.6557C79.9283 12.6557 81.4375 13.0641 82.5384 13.8809C83.6463 14.6976 84.3317 15.802 84.5945 17.1941ZM95.2638 29.552C93.6303 29.552 92.2276 29.1934 91.0558 28.476C89.891 27.7587 88.9925 26.7679 88.3604 25.5037C87.7354 24.2324 87.4229 22.7694 87.4229 21.1145C87.4229 19.4526 87.7425 17.986 88.3817 16.7147C89.021 15.4363 89.9229 14.4419 91.0877 13.7317C92.2596 13.0144 93.6445 12.6557 95.2425 12.6557C96.5707 12.6557 97.7461 12.9007 98.7688 13.3908C99.7987 13.8738 100.619 14.5591 101.23 15.4469C101.841 16.3276 102.189 17.3574 102.274 18.5364H98.5877C98.4386 17.748 98.0835 17.0911 97.5224 16.5655C96.9684 16.0328 96.2262 15.7665 95.2958 15.7665C94.5075 15.7665 93.815 15.9796 93.2184 16.4057C92.6218 16.8248 92.1566 17.4284 91.8228 18.2168C91.4961 19.0051 91.3327 19.9498 91.3327 21.0506C91.3327 22.1657 91.4961 23.1245 91.8228 23.927C92.1495 24.7225 92.6076 25.3368 93.1971 25.7701C93.7937 26.1962 94.4933 26.4093 95.2958 26.4093C95.864 26.4093 96.3718 26.3027 96.8192 26.0897C97.2738 25.8695 97.6538 25.5534 97.9592 25.1415C98.2646 24.7296 98.4741 24.2289 98.5877 23.6394H102.274C102.181 24.7971 101.841 25.8233 101.251 26.7182C100.662 27.606 99.859 28.302 98.8434 28.8063C97.8278 29.3034 96.6346 29.552 95.2638 29.552ZM105.441 29.2324V12.8688H109.18V15.5961H109.35C109.649 14.6515 110.16 13.9235 110.884 13.4121C111.616 12.8936 112.45 12.6344 113.388 12.6344C113.601 12.6344 113.839 12.6451 114.102 12.6664C114.372 12.6806 114.595 12.7054 114.773 12.7409V16.2885C114.61 16.2317 114.35 16.182 113.995 16.1394C113.647 16.0897 113.31 16.0648 112.983 16.0648C112.28 16.0648 111.648 16.2175 111.087 16.5229C110.533 16.8212 110.096 17.2367 109.776 17.7694C109.457 18.302 109.297 18.9164 109.297 19.6124V29.2324H105.441ZM117.335 29.2324V12.8688H121.192V29.2324H117.335ZM119.274 10.5463C118.663 10.5463 118.138 10.3439 117.697 9.9391C117.257 9.52717 117.037 9.03356 117.037 8.45827C117.037 7.87589 117.257 7.38228 117.697 6.97745C118.138 6.56552 118.663 6.35955 119.274 6.35955C119.892 6.35955 120.417 6.56552 120.851 6.97745C121.291 7.38228 121.511 7.87589 121.511 8.45827C121.511 9.03356 121.291 9.52717 120.851 9.9391C120.417 10.3439 119.892 10.5463 119.274 10.5463ZM125.157 35.3688V12.8688H128.95V15.5748H129.174C129.373 15.177 129.653 14.7544 130.015 14.307C130.377 13.8524 130.868 13.4654 131.485 13.1458C132.103 12.8191 132.892 12.6557 133.85 12.6557C135.115 12.6557 136.255 12.9789 137.27 13.6252C138.293 14.2644 139.103 15.2125 139.699 16.4696C140.303 17.7196 140.605 19.2537 140.605 21.0719C140.605 22.8688 140.31 24.3958 139.721 25.6529C139.131 26.91 138.328 27.8688 137.313 28.5293C136.297 29.1898 135.147 29.5201 133.861 29.5201C132.924 29.5201 132.146 29.3638 131.528 29.0513C130.91 28.7388 130.413 28.3624 130.037 27.9221C129.667 27.4746 129.38 27.052 129.174 26.6543H129.014V35.3688H125.157ZM128.939 21.0506C128.939 22.1088 129.088 23.0357 129.387 23.8311C129.692 24.6266 130.129 25.248 130.697 25.6955C131.272 26.1358 131.968 26.356 132.785 26.356C133.637 26.356 134.351 26.1287 134.926 25.6742C135.502 25.2125 135.935 24.584 136.226 23.7885C136.525 22.986 136.674 22.0733 136.674 21.0506C136.674 20.035 136.528 19.133 136.237 18.3446C135.946 17.5563 135.512 16.9384 134.937 16.4909C134.362 16.0435 133.645 15.8198 132.785 15.8198C131.961 15.8198 131.262 16.0364 130.686 16.4696C130.111 16.9029 129.674 17.5101 129.376 18.2914C129.085 19.0726 128.939 19.9924 128.939 21.0506ZM152.078 12.8688V15.8517H142.672V12.8688H152.078ZM144.994 8.94833H148.85V24.3105C148.85 24.829 148.929 25.2267 149.085 25.5037C149.248 25.7736 149.461 25.9583 149.724 26.0577C149.987 26.1571 150.278 26.2069 150.598 26.2069C150.839 26.2069 151.059 26.1891 151.258 26.1536C151.464 26.1181 151.62 26.0861 151.727 26.0577L152.377 29.0726C152.171 29.1436 151.876 29.2218 151.493 29.307C151.116 29.3922 150.654 29.4419 150.108 29.4561C149.142 29.4846 148.272 29.339 147.498 29.0194C146.723 28.6926 146.109 28.1884 145.654 27.5066C145.207 26.8248 144.987 25.9725 144.994 24.9498V8.94833Z"
        fill="#A6A6A6" />
</svg>
    