<svg width="196" height="37" viewBox="0 0 196 37" fill="none" xmlns="http://www.w3.org/2000/svg">
    <circle cx="15" cy="18.2324" r="15" fill="#A6A6A6" />
    <path
        d="M21 18.2324C21 22.0984 17.866 25.2324 14 25.2324C10.134 25.2324 7 22.0984 7 18.2324C7 14.3664 10.134 11.2324 14 11.2324C15.9587 11.2324 17.7295 12.0369 19 13.3334"
        stroke="white" stroke-width="2" />
    <path d="M17 20.2324L21 18.2324L23.5 21.7324" stroke="white" stroke-width="2" />
    <path
        d="M49.098 35.7097C47.7131 35.7097 46.5234 35.5215 45.5291 35.1451C44.5348 34.7757 43.7358 34.2786 43.1321 33.6536C42.5284 33.0286 42.1094 32.3361 41.875 31.5762L45.348 30.7346C45.5043 31.0542 45.7315 31.3702 46.0298 31.6827C46.3281 32.0023 46.7294 32.2651 47.2337 32.4711C47.745 32.6841 48.3878 32.7907 49.1619 32.7907C50.2557 32.7907 51.1612 32.5243 51.8786 31.9917C52.5959 31.4661 52.9545 30.5996 52.9545 29.3922V26.2921H52.7628C52.5639 26.6898 52.2727 27.0982 51.8892 27.5172C51.5128 27.9363 51.0121 28.2878 50.3871 28.5719C49.7692 28.856 48.9915 28.998 48.054 28.998C46.7969 28.998 45.657 28.7033 44.6342 28.1138C43.6186 27.5172 42.8089 26.6294 42.2053 25.4505C41.6087 24.2644 41.3104 22.78 41.3104 20.9973C41.3104 19.2005 41.6087 17.6841 42.2053 16.4483C42.8089 15.2054 43.6222 14.2644 44.6449 13.6252C45.6676 12.9789 46.8075 12.6557 48.0646 12.6557C49.0234 12.6557 49.8118 12.8191 50.4297 13.1458C51.0547 13.4654 51.5518 13.8524 51.9212 14.307C52.2905 14.7544 52.571 15.177 52.7628 15.5748H52.9759V12.8688H56.7791V29.4988C56.7791 30.8979 56.4453 32.0556 55.7777 32.9718C55.1101 33.888 54.1974 34.5733 53.0398 35.0279C51.8821 35.4824 50.5682 35.7097 49.098 35.7097ZM49.13 25.9725C49.9467 25.9725 50.6428 25.7736 51.218 25.3759C51.7933 24.9782 52.2301 24.4064 52.5284 23.6607C52.8267 22.915 52.9759 22.0201 52.9759 20.976C52.9759 19.9462 52.8267 19.0442 52.5284 18.2701C52.2372 17.4959 51.804 16.8958 51.2287 16.4696C50.6605 16.0364 49.9609 15.8198 49.13 15.8198C48.2706 15.8198 47.5533 16.0435 46.978 16.4909C46.4027 16.9384 45.9695 17.5527 45.6783 18.334C45.3871 19.1081 45.2415 19.9888 45.2415 20.976C45.2415 21.9775 45.3871 22.8546 45.6783 23.6074C45.9766 24.3532 46.4134 24.9355 46.9886 25.3546C47.571 25.7665 48.2848 25.9725 49.13 25.9725ZM60.7315 29.2324V12.8688H64.4709V15.5961H64.6413C64.9396 14.6515 65.451 13.9235 66.1754 13.4121C66.907 12.8936 67.7415 12.6344 68.679 12.6344C68.892 12.6344 69.13 12.6451 69.3928 12.6664C69.6626 12.6806 69.8864 12.7054 70.0639 12.7409V16.2885C69.9006 16.2317 69.6413 16.182 69.2862 16.1394C68.9382 16.0897 68.6009 16.0648 68.2741 16.0648C67.571 16.0648 66.9389 16.2175 66.3778 16.5229C65.8239 16.8212 65.3871 17.2367 65.0675 17.7694C64.7479 18.302 64.5881 18.9164 64.5881 19.6124V29.2324H60.7315ZM77.0419 29.5627C76.005 29.5627 75.071 29.378 74.2401 29.0087C73.4162 28.6323 72.7628 28.0783 72.2798 27.3468C71.804 26.6152 71.5661 25.7132 71.5661 24.6408C71.5661 23.7175 71.7365 22.954 72.0774 22.3503C72.4183 21.7466 72.8835 21.2637 73.473 20.9015C74.0625 20.5392 74.7266 20.2658 75.4652 20.0811C76.2109 19.8894 76.9815 19.7509 77.777 19.6657C78.7358 19.5662 79.5135 19.4774 80.1101 19.3993C80.7067 19.3141 81.1399 19.1863 81.4098 19.0158C81.6868 18.8382 81.8253 18.5648 81.8253 18.1955V18.1316C81.8253 17.329 81.5874 16.7076 81.1115 16.2672C80.6357 15.8269 79.9503 15.6067 79.0554 15.6067C78.1108 15.6067 77.3615 15.8127 76.8075 16.2246C76.2607 16.6365 75.8913 17.123 75.6996 17.6841L72.0987 17.1728C72.3828 16.1784 72.8516 15.3475 73.505 14.6799C74.1584 14.0051 74.9574 13.5009 75.902 13.1671C76.8466 12.8262 77.8906 12.6557 79.0341 12.6557C79.8224 12.6557 80.6072 12.748 81.3885 12.9327C82.1697 13.1174 82.8835 13.4228 83.5298 13.8489C84.1761 14.2679 84.6946 14.8397 85.0852 15.5641C85.483 16.2885 85.6818 17.1941 85.6818 18.2807V29.2324H81.9744V26.9846H81.8466C81.6122 27.4391 81.282 27.8652 80.8558 28.263C80.4368 28.6536 79.9077 28.9696 79.2685 29.2111C78.6364 29.4455 77.8942 29.5627 77.0419 29.5627ZM78.0433 26.7289C78.8175 26.7289 79.4886 26.5762 80.0568 26.2708C80.625 25.9583 81.0618 25.5463 81.3672 25.035C81.6797 24.5236 81.8359 23.9661 81.8359 23.3624V21.4341C81.7152 21.5336 81.5092 21.6259 81.218 21.7111C80.9339 21.7963 80.6143 21.8709 80.2592 21.9348C79.9041 21.9988 79.5526 22.0556 79.2045 22.1053C78.8565 22.155 78.5547 22.1976 78.299 22.2331C77.7237 22.3113 77.2088 22.4391 76.7543 22.6167C76.2997 22.7942 75.9411 23.0428 75.6783 23.3624C75.4155 23.6749 75.2841 24.0797 75.2841 24.5769C75.2841 25.2871 75.5433 25.8233 76.0618 26.1855C76.5803 26.5478 77.2408 26.7289 78.0433 26.7289ZM89.5597 29.2324V12.8688H93.2457V15.6493H93.4375C93.7784 14.7118 94.343 13.9803 95.1314 13.4547C95.9197 12.9221 96.8608 12.6557 97.9545 12.6557C99.0625 12.6557 99.9964 12.9256 100.756 13.4654C101.523 13.998 102.063 14.726 102.376 15.6493H102.546C102.908 14.7402 103.519 14.0158 104.379 13.476C105.245 12.9292 106.271 12.6557 107.457 12.6557C108.963 12.6557 110.192 13.1316 111.143 14.0833C112.095 15.035 112.571 16.4235 112.571 18.2488V29.2324H108.704V18.8453C108.704 17.8297 108.434 17.0875 107.894 16.6188C107.354 16.1429 106.694 15.905 105.913 15.905C104.982 15.905 104.254 16.1962 103.729 16.7786C103.21 17.3539 102.951 18.1032 102.951 19.0265V29.2324H99.169V18.6855C99.169 17.8404 98.9134 17.1657 98.402 16.6614C97.8977 16.1571 97.2372 15.905 96.4205 15.905C95.8665 15.905 95.3622 16.0471 94.9077 16.3311C94.4531 16.6081 94.0909 17.0023 93.821 17.5137C93.5511 18.0179 93.4162 18.6074 93.4162 19.2821V29.2324H89.5597ZM116.483 29.2324V12.8688H120.17V15.6493H120.361C120.702 14.7118 121.267 13.9803 122.055 13.4547C122.844 12.9221 123.785 12.6557 124.878 12.6557C125.986 12.6557 126.92 12.9256 127.68 13.4654C128.447 13.998 128.987 14.726 129.3 15.6493H129.47C129.832 14.7402 130.443 14.0158 131.302 13.476C132.169 12.9292 133.195 12.6557 134.381 12.6557C135.887 12.6557 137.116 13.1316 138.067 14.0833C139.019 15.035 139.495 16.4235 139.495 18.2488V29.2324H135.628V18.8453C135.628 17.8297 135.358 17.0875 134.818 16.6188C134.278 16.1429 133.618 15.905 132.836 15.905C131.906 15.905 131.178 16.1962 130.653 16.7786C130.134 17.3539 129.875 18.1032 129.875 19.0265V29.2324H126.093V18.6855C126.093 17.8404 125.837 17.1657 125.326 16.6614C124.822 16.1571 124.161 15.905 123.344 15.905C122.79 15.905 122.286 16.0471 121.831 16.3311C121.377 16.6081 121.015 17.0023 120.745 17.5137C120.475 18.0179 120.34 18.6074 120.34 19.2821V29.2324H116.483ZM148.116 29.5627C147.079 29.5627 146.145 29.378 145.314 29.0087C144.49 28.6323 143.837 28.0783 143.354 27.3468C142.878 26.6152 142.64 25.7132 142.64 24.6408C142.64 23.7175 142.811 22.954 143.152 22.3503C143.493 21.7466 143.958 21.2637 144.547 20.9015C145.137 20.5392 145.801 20.2658 146.539 20.0811C147.285 19.8894 148.056 19.7509 148.851 19.6657C149.81 19.5662 150.588 19.4774 151.184 19.3993C151.781 19.3141 152.214 19.1863 152.484 19.0158C152.761 18.8382 152.9 18.5648 152.9 18.1955V18.1316C152.9 17.329 152.662 16.7076 152.186 16.2672C151.71 15.8269 151.025 15.6067 150.13 15.6067C149.185 15.6067 148.436 15.8127 147.882 16.2246C147.335 16.6365 146.966 17.123 146.774 17.6841L143.173 17.1728C143.457 16.1784 143.926 15.3475 144.579 14.6799C145.233 14.0051 146.032 13.5009 146.976 13.1671C147.921 12.8262 148.965 12.6557 150.108 12.6557C150.897 12.6557 151.681 12.748 152.463 12.9327C153.244 13.1174 153.958 13.4228 154.604 13.8489C155.25 14.2679 155.769 14.8397 156.159 15.5641C156.557 16.2885 156.756 17.1941 156.756 18.2807V29.2324H153.049V26.9846H152.921C152.686 27.4391 152.356 27.8652 151.93 28.263C151.511 28.6536 150.982 28.9696 150.343 29.2111C149.711 29.4455 148.968 29.5627 148.116 29.5627ZM149.118 26.7289C149.892 26.7289 150.563 26.5762 151.131 26.2708C151.699 25.9583 152.136 25.5463 152.441 25.035C152.754 24.5236 152.91 23.9661 152.91 23.3624V21.4341C152.789 21.5336 152.583 21.6259 152.292 21.7111C152.008 21.7963 151.689 21.8709 151.333 21.9348C150.978 21.9988 150.627 22.0556 150.279 22.1053C149.931 22.155 149.629 22.1976 149.373 22.2331C148.798 22.3113 148.283 22.4391 147.828 22.6167C147.374 22.7942 147.015 23.0428 146.752 23.3624C146.49 23.6749 146.358 24.0797 146.358 24.5769C146.358 25.2871 146.618 25.8233 147.136 26.1855C147.654 26.5478 148.315 26.7289 149.118 26.7289ZM160.634 29.2324V12.8688H164.373V15.5961H164.544C164.842 14.6515 165.353 13.9235 166.078 13.4121C166.809 12.8936 167.644 12.6344 168.581 12.6344C168.794 12.6344 169.032 12.6451 169.295 12.6664C169.565 12.6806 169.789 12.7054 169.966 12.7409V16.2885C169.803 16.2317 169.544 16.182 169.189 16.1394C168.841 16.0897 168.503 16.0648 168.176 16.0648C167.473 16.0648 166.841 16.2175 166.28 16.5229C165.726 16.8212 165.289 17.2367 164.97 17.7694C164.65 18.302 164.49 18.9164 164.49 19.6124V29.2324H160.634ZM176.385 7.41424V29.2324H172.528V7.41424H176.385ZM182.748 35.3688C182.222 35.3688 181.736 35.3262 181.288 35.2409C180.848 35.1628 180.496 35.0705 180.233 34.964L181.128 31.9597C181.689 32.123 182.19 32.2012 182.631 32.1941C183.071 32.187 183.458 32.0485 183.792 31.7786C184.133 31.5158 184.42 31.0755 184.655 30.4576L184.985 29.5733L179.051 12.8688H183.142L186.913 25.2267H187.084L190.866 12.8688H194.967L188.415 31.214C188.11 32.0804 187.705 32.8226 187.201 33.4405C186.697 34.0655 186.079 34.5414 185.347 34.8681C184.623 35.2019 183.756 35.3688 182.748 35.3688Z"
        fill="#A6A6A6" />
</svg>
    