<svg width="201" height="37" viewBox="0 0 201 37" fill="none" xmlns="http://www.w3.org/2000/svg">
    <path
        d="M46.1044 7.41424V29.2324H42.152V7.41424H46.1044ZM68.3141 7.41424V29.2324H64.7985L54.5179 14.3709H54.3368V29.2324H50.3844V7.41424H53.9213L64.1912 22.2864H64.383V7.41424H68.3141ZM71.6619 10.7275V7.41424H89.0696V10.7275H82.326V29.2324H78.4055V10.7275H71.6619ZM92.4254 29.2324V7.41424H106.616V10.7275H96.3778V16.6507H105.881V19.964H96.3778V25.9192H106.701V29.2324H92.4254ZM110.648 29.2324V7.41424H118.83C120.506 7.41424 121.912 7.70543 123.049 8.28782C124.192 8.87021 125.055 9.68697 125.637 10.7381C126.227 11.7821 126.522 13.0002 126.522 14.3922C126.522 15.7914 126.223 17.0059 125.627 18.0357C125.037 19.0584 124.167 19.8503 123.017 20.4114C121.866 20.9654 120.453 21.2424 118.777 21.2424H112.949V17.9611H118.244C119.224 17.9611 120.027 17.8262 120.652 17.5563C121.277 17.2793 121.738 16.878 122.037 16.3524C122.342 15.8198 122.495 15.1664 122.495 14.3922C122.495 13.6181 122.342 12.9576 122.037 12.4107C121.731 11.8567 121.266 11.4377 120.641 11.1536C120.016 10.8624 119.21 10.7168 118.223 10.7168H114.6V29.2324H110.648ZM121.919 19.3461L127.321 29.2324H122.91L117.605 19.3461H121.919ZM148.835 14.7757H144.851C144.737 14.1223 144.528 13.5435 144.222 13.0392C143.917 12.5279 143.537 12.0946 143.082 11.7395C142.628 11.3844 142.109 11.1181 141.527 10.9405C140.952 10.7559 140.33 10.6635 139.663 10.6635C138.477 10.6635 137.425 10.9618 136.509 11.5584C135.593 12.1479 134.876 13.0144 134.357 14.1578C133.839 15.2942 133.58 16.6827 133.58 18.3233C133.58 19.9924 133.839 21.3986 134.357 22.5421C134.883 23.6784 135.6 24.5378 136.509 25.1202C137.425 25.6955 138.473 25.9831 139.652 25.9831C140.305 25.9831 140.916 25.8979 141.484 25.7275C142.06 25.5499 142.575 25.2907 143.029 24.9498C143.491 24.6088 143.878 24.1898 144.19 23.6926C144.51 23.1955 144.73 22.6273 144.851 21.9881L148.835 22.0094C148.686 23.0463 148.363 24.0194 147.866 24.9284C147.376 25.8375 146.733 26.6401 145.938 27.3361C145.142 28.025 144.212 28.5648 143.146 28.9554C142.081 29.339 140.898 29.5307 139.599 29.5307C137.681 29.5307 135.969 29.0868 134.464 28.199C132.958 27.3113 131.772 26.0293 130.906 24.3532C130.039 22.677 129.606 20.6671 129.606 18.3233C129.606 15.9725 130.043 13.9625 130.916 12.2935C131.79 10.6174 132.979 9.3354 134.485 8.44762C135.991 7.55984 137.695 7.11594 139.599 7.11594C140.813 7.11594 141.942 7.2864 142.987 7.62731C144.031 7.96822 144.961 8.46893 145.778 9.12944C146.594 9.78285 147.266 10.5854 147.791 11.5371C148.324 12.4817 148.672 13.5613 148.835 14.7757ZM171.95 18.3233C171.95 20.6742 171.51 22.6877 170.629 24.3638C169.756 26.0328 168.563 27.3113 167.05 28.199C165.544 29.0868 163.836 29.5307 161.926 29.5307C160.015 29.5307 158.303 29.0868 156.791 28.199C155.285 27.3042 154.092 26.0222 153.211 24.3532C152.338 22.677 151.901 20.6671 151.901 18.3233C151.901 15.9725 152.338 13.9625 153.211 12.2935C154.092 10.6174 155.285 9.3354 156.791 8.44762C158.303 7.55984 160.015 7.11594 161.926 7.11594C163.836 7.11594 165.544 7.55984 167.05 8.44762C168.563 9.3354 169.756 10.6174 170.629 12.2935C171.51 13.9625 171.95 15.9725 171.95 18.3233ZM167.977 18.3233C167.977 16.6685 167.718 15.2729 167.199 14.1365C166.688 12.9931 165.977 12.1301 165.068 11.5478C164.159 10.9583 163.112 10.6635 161.926 10.6635C160.74 10.6635 159.692 10.9583 158.783 11.5478C157.874 12.1301 157.16 12.9931 156.642 14.1365C156.13 15.2729 155.874 16.6685 155.874 18.3233C155.874 19.9782 156.13 21.3773 156.642 22.5208C157.16 23.6571 157.874 24.5201 158.783 25.1096C159.692 25.6919 160.74 25.9831 161.926 25.9831C163.112 25.9831 164.159 25.6919 165.068 25.1096C165.977 24.5201 166.688 23.6571 167.199 22.5208C167.718 21.3773 167.977 19.9782 167.977 18.3233ZM175.687 7.41424H180.524L187.001 23.2239H187.257L193.734 7.41424H198.571V29.2324H194.778V14.2431H194.576L188.546 29.1685H185.712L179.682 14.2111H179.48V29.2324H175.687V7.41424Z"
        fill="#A6A6A6" />
    <rect y="3.23242" width="30" height="30" rx="3" fill="#A6A6A6" />
    <rect x="4" y="10.2324" width="2" height="12" fill="white" />
    <rect x="9" y="7.23242" width="2" height="18" fill="white" />
    <rect x="14" y="7.23242" width="2" height="18" fill="white" />
    <rect x="19" y="7.23242" width="2" height="18" fill="white" />
    <path d="M5 27.2324C7.83333 29.4963 16 32.6657 26 27.2324" stroke="white" stroke-width="2"
        stroke-linecap="round" />
    <rect x="24" y="10.2324" width="2" height="12" fill="white" />
</svg>
    