<svg width="24" height="24" viewBox="0 0 24 24" fill="none" xmlns="http://www.w3.org/2000/svg">
    <path
        d="M22.5 8.5C22.5 6.29086 20.7091 4.5 18.5 4.5H5.5C3.29086 4.5 1.5 6.29086 1.5 8.5V15.5C1.5 17.7091 3.29086 19.5 5.5 19.5H18.5C20.7091 19.5 22.5 17.7091 22.5 15.5V8.5Z"
        fill="#32AB45" />
    <path d="M15.75 4.5H8.25V19.5H15.75V4.5Z" fill="#FBFBFB" />
    <path
        d="M22.5 7.875C22.5 6.01104 20.989 4.5 19.125 4.5C17.261 4.5 15.75 6.01104 15.75 7.875V16.125C15.75 17.989 17.261 19.5 19.125 19.5C20.989 19.5 22.5 17.989 22.5 16.125V7.875Z"
        fill="#32AB45" />
</svg>
    