<svg width="145" height="37" viewBox="0 0 145 37" fill="none" xmlns="http://www.w3.org/2000/svg">
    <path
        d="M68.0817 7.41424V29.2324H64.5661L54.2855 14.3709H54.1044V29.2324H50.152V7.41424H53.6889L63.9588 22.2864H64.1506V7.41424H68.0817ZM79.3556 29.552C77.7576 29.552 76.3727 29.2005 75.2008 28.4973C74.0289 27.7942 73.1199 26.8105 72.4735 25.5463C71.8343 24.2821 71.5147 22.8049 71.5147 21.1145C71.5147 19.4242 71.8343 17.9434 72.4735 16.6721C73.1199 15.4007 74.0289 14.4135 75.2008 13.7104C76.3727 13.0073 77.7576 12.6557 79.3556 12.6557C80.9537 12.6557 82.3386 13.0073 83.5105 13.7104C84.6824 14.4135 85.5879 15.4007 86.2271 16.6721C86.8734 17.9434 87.1966 19.4242 87.1966 21.1145C87.1966 22.8049 86.8734 24.2821 86.2271 25.5463C85.5879 26.8105 84.6824 27.7942 83.5105 28.4973C82.3386 29.2005 80.9537 29.552 79.3556 29.552ZM79.377 26.4625C80.2434 26.4625 80.9679 26.2246 81.5502 25.7488C82.1326 25.2658 82.5659 24.6195 82.85 23.8098C83.1412 23.0002 83.2868 22.0982 83.2868 21.1039C83.2868 20.1024 83.1412 19.1969 82.85 18.3873C82.5659 17.5705 82.1326 16.9206 81.5502 16.4377C80.9679 15.9547 80.2434 15.7132 79.377 15.7132C78.4892 15.7132 77.7505 15.9547 77.161 16.4377C76.5787 16.9206 76.1419 17.5705 75.8507 18.3873C75.5666 19.1969 75.4245 20.1024 75.4245 21.1039C75.4245 22.0982 75.5666 23.0002 75.8507 23.8098C76.1419 24.6195 76.5787 25.2658 77.161 25.7488C77.7505 26.2246 78.4892 26.4625 79.377 26.4625ZM98.641 12.8688V15.8517H89.234V12.8688H98.641ZM91.5565 8.94833H95.413V24.3105C95.413 24.829 95.4911 25.2267 95.6474 25.5037C95.8107 25.7736 96.0238 25.9583 96.2866 26.0577C96.5494 26.1571 96.8406 26.2069 97.1602 26.2069C97.4016 26.2069 97.6218 26.1891 97.8207 26.1536C98.0266 26.1181 98.1829 26.0861 98.2894 26.0577L98.9393 29.0726C98.7333 29.1436 98.4386 29.2218 98.055 29.307C97.6786 29.3922 97.217 29.4419 96.6701 29.4561C95.7042 29.4846 94.8342 29.339 94.06 29.0194C93.2859 28.6926 92.6715 28.1884 92.217 27.5066C91.7695 26.8248 91.5494 25.9725 91.5565 24.9498V8.94833ZM101.866 29.2324V12.8688H105.723V29.2324H101.866ZM103.805 10.5463C103.194 10.5463 102.669 10.3439 102.229 9.9391C101.788 9.52717 101.568 9.03356 101.568 8.45827C101.568 7.87589 101.788 7.38228 102.229 6.97745C102.669 6.56552 103.194 6.35955 103.805 6.35955C104.423 6.35955 104.949 6.56552 105.382 6.97745C105.822 7.38228 106.042 7.87589 106.042 8.45827C106.042 9.03356 105.822 9.52717 105.382 9.9391C104.949 10.3439 104.423 10.5463 103.805 10.5463ZM116.826 29.552C115.228 29.552 113.843 29.2005 112.672 28.4973C111.5 27.7942 110.591 26.8105 109.944 25.5463C109.305 24.2821 108.985 22.8049 108.985 21.1145C108.985 19.4242 109.305 17.9434 109.944 16.6721C110.591 15.4007 111.5 14.4135 112.672 13.7104C113.843 13.0073 115.228 12.6557 116.826 12.6557C118.424 12.6557 119.809 13.0073 120.981 13.7104C122.153 14.4135 123.059 15.4007 123.698 16.6721C124.344 17.9434 124.667 19.4242 124.667 21.1145C124.667 22.8049 124.344 24.2821 123.698 25.5463C123.059 26.8105 122.153 27.7942 120.981 28.4973C119.809 29.2005 118.424 29.552 116.826 29.552ZM116.848 26.4625C117.714 26.4625 118.439 26.2246 119.021 25.7488C119.603 25.2658 120.037 24.6195 120.321 23.8098C120.612 23.0002 120.757 22.0982 120.757 21.1039C120.757 20.1024 120.612 19.1969 120.321 18.3873C120.037 17.5705 119.603 16.9206 119.021 16.4377C118.439 15.9547 117.714 15.7132 116.848 15.7132C115.96 15.7132 115.221 15.9547 114.632 16.4377C114.049 16.9206 113.613 17.5705 113.321 18.3873C113.037 19.1969 112.895 20.1024 112.895 21.1039C112.895 22.0982 113.037 23.0002 113.321 23.8098C113.613 24.6195 114.049 25.2658 114.632 25.7488C115.221 26.2246 115.96 26.4625 116.848 26.4625ZM131.797 19.6444V29.2324H127.941V12.8688H131.627V15.6493H131.818C132.195 14.7331 132.795 14.0051 133.619 13.4654C134.45 12.9256 135.476 12.6557 136.698 12.6557C137.827 12.6557 138.811 12.8972 139.649 13.3801C140.494 13.8631 141.147 14.5627 141.609 15.4789C142.078 16.3951 142.308 17.5066 142.301 18.8134V29.2324H138.445V19.41C138.445 18.3162 138.161 17.4604 137.593 16.8425C137.031 16.2246 136.254 15.9157 135.259 15.9157C134.585 15.9157 133.985 16.0648 133.459 16.3631C132.941 16.6543 132.532 17.0769 132.234 17.6309C131.943 18.1848 131.797 18.856 131.797 19.6444Z"
        fill="#A6A6A6" />
    <path
        d="M28.3878 14.687V29.2324H26.044L19.1903 19.3248H19.0696V29.2324H16.4347V14.687H18.7926L25.6392 24.6017H25.767V14.687H28.3878Z"
        fill="#A6A6A6" />
    <rect x="9" y="9.23242" width="28" height="26" stroke="#A6A6A6" strokeWidth="2" />
    <path d="M2.66145 2.23242L8.37574 7.23242H35.3386L29.6243 2.23242H2.66145Z" stroke="#A6A6A6"
        strokeWidth="2" />
    <path d="M8 8.23242L0 1.23242V29.2324L8 36.2324V8.23242Z" fill="#A6A6A6" />
</svg>
    