<svg width="180" height="39" viewBox="0 0 180 39" fill="none" xmlns="http://www.w3.org/2000/svg">
    <path
        d="M60.2005 9.41424H64.1529V23.6685C64.1529 25.231 63.7836 26.6053 63.0449 27.7914C62.3134 28.9775 61.2836 29.9043 59.9554 30.5719C58.6273 31.2324 57.0755 31.5627 55.2999 31.5627C53.5172 31.5627 51.9618 31.2324 50.6337 30.5719C49.3056 29.9043 48.2757 28.9775 47.5442 27.7914C46.8127 26.6053 46.4469 25.231 46.4469 23.6685V9.41424H50.3993V23.3382C50.3993 24.2473 50.5982 25.057 50.9959 25.7672C51.4007 26.4775 51.9689 27.035 52.7005 27.4398C53.432 27.8375 54.2985 28.0364 55.2999 28.0364C56.3013 28.0364 57.1678 27.8375 57.8993 27.4398C58.638 27.035 59.2061 26.4775 59.6039 25.7672C60.0016 25.057 60.2005 24.2473 60.2005 23.3382V9.41424ZM72.1349 21.6444V31.2324H68.2784V14.8688H71.9645V17.6493H72.1562C72.5327 16.7331 73.1328 16.0051 73.9567 15.4654C74.7876 14.9256 75.8139 14.6557 77.0355 14.6557C78.1648 14.6557 79.1484 14.8972 79.9865 15.3801C80.8317 15.8631 81.4851 16.5627 81.9467 17.4789C82.4155 18.3951 82.6463 19.5066 82.6392 20.8134V31.2324H78.7827V21.41C78.7827 20.3162 78.4986 19.4604 77.9304 18.8425C77.3693 18.2246 76.5916 17.9157 75.5973 17.9157C74.9226 17.9157 74.3224 18.0648 73.7969 18.3631C73.2784 18.6543 72.87 19.0769 72.5717 19.6309C72.2805 20.1848 72.1349 20.856 72.1349 21.6444ZM99.4929 19.1941L95.9773 19.5776C95.8778 19.2225 95.7038 18.8887 95.4553 18.5762C95.2138 18.2637 94.8871 18.0115 94.4751 17.8198C94.0632 17.628 93.5589 17.5321 92.9624 17.5321C92.1598 17.5321 91.4851 17.7061 90.9382 18.0542C90.3984 18.4022 90.1321 18.8532 90.1392 19.4071C90.1321 19.883 90.3061 20.2701 90.6612 20.5684C91.0234 20.8667 91.62 21.1117 92.451 21.3034L95.2422 21.9C96.7905 22.2338 97.9411 22.763 98.6939 23.4874C99.4538 24.2118 99.8374 25.16 99.8445 26.3319C99.8374 27.3617 99.5355 28.2708 98.9389 29.0591C98.3494 29.8404 97.5291 30.4512 96.478 30.8915C95.4268 31.3319 94.2195 31.552 92.8558 31.552C90.853 31.552 89.2408 31.133 88.0192 30.2949C86.7976 29.4498 86.0696 28.2743 85.8352 26.7686L89.5959 26.4064C89.7663 27.1451 90.1286 27.7026 90.6825 28.079C91.2365 28.4554 91.9574 28.6436 92.8452 28.6436C93.7614 28.6436 94.4964 28.4554 95.0504 28.079C95.6115 27.7026 95.892 27.2374 95.892 26.6834C95.892 26.2147 95.7109 25.8276 95.3487 25.5222C94.9936 25.2168 94.4396 24.9824 93.6868 24.8191L90.8956 24.2331C89.326 23.9064 88.1648 23.356 87.4119 22.5819C86.6591 21.8006 86.2862 20.8134 86.2933 19.6202C86.2862 18.6117 86.5597 17.7381 87.1136 16.9995C87.6747 16.2537 88.4524 15.6784 89.4467 15.2736C90.4482 14.8617 91.6023 14.6557 92.9091 14.6557C94.8267 14.6557 96.3359 15.0641 97.4368 15.8809C98.5447 16.6976 99.2301 17.802 99.4929 19.1941ZM103.025 37.3688V14.8688H106.817V17.5748H107.041C107.24 17.177 107.52 16.7544 107.882 16.307C108.245 15.8524 108.735 15.4654 109.353 15.1458C109.971 14.8191 110.759 14.6557 111.718 14.6557C112.982 14.6557 114.122 14.9789 115.137 15.6252C116.16 16.2644 116.97 17.2125 117.566 18.4696C118.17 19.7196 118.472 21.2537 118.472 23.0719C118.472 24.8688 118.177 26.3958 117.588 27.6529C116.998 28.91 116.196 29.8688 115.18 30.5293C114.164 31.1898 113.014 31.5201 111.728 31.5201C110.791 31.5201 110.013 31.3638 109.395 31.0513C108.777 30.7388 108.28 30.3624 107.904 29.9221C107.534 29.4746 107.247 29.052 107.041 28.6543H106.881V37.3688H103.025ZM106.806 23.0506C106.806 24.1088 106.956 25.0357 107.254 25.8311C107.559 26.6266 107.996 27.248 108.564 27.6955C109.14 28.1358 109.836 28.356 110.652 28.356C111.505 28.356 112.218 28.1287 112.794 27.6742C113.369 27.2125 113.802 26.584 114.093 25.7885C114.392 24.986 114.541 24.0733 114.541 23.0506C114.541 22.035 114.395 21.133 114.104 20.3446C113.813 19.5563 113.38 18.9384 112.804 18.4909C112.229 18.0435 111.512 17.8198 110.652 17.8198C109.828 17.8198 109.129 18.0364 108.554 18.4696C107.978 18.9029 107.542 19.5101 107.243 20.2914C106.952 21.0726 106.806 21.9924 106.806 23.0506ZM125.631 9.41424V31.2324H121.775V9.41424H125.631ZM134.306 31.5627C133.269 31.5627 132.335 31.378 131.504 31.0087C130.68 30.6323 130.026 30.0783 129.544 29.3468C129.068 28.6152 128.83 27.7132 128.83 26.6408C128.83 25.7175 129 24.954 129.341 24.3503C129.682 23.7466 130.147 23.2637 130.737 22.9015C131.326 22.5392 131.99 22.2658 132.729 22.0811C133.475 21.8894 134.245 21.7509 135.041 21.6657C135.999 21.5662 136.777 21.4774 137.374 21.3993C137.97 21.3141 138.404 21.1863 138.673 21.0158C138.95 20.8382 139.089 20.5648 139.089 20.1955V20.1316C139.089 19.329 138.851 18.7076 138.375 18.2672C137.899 17.8269 137.214 17.6067 136.319 17.6067C135.374 17.6067 134.625 17.8127 134.071 18.2246C133.524 18.6365 133.155 19.123 132.963 19.6841L129.362 19.1728C129.646 18.1784 130.115 17.3475 130.769 16.6799C131.422 16.0051 132.221 15.5009 133.166 15.1671C134.11 14.8262 135.154 14.6557 136.298 14.6557C137.086 14.6557 137.871 14.748 138.652 14.9327C139.433 15.1174 140.147 15.4228 140.794 15.8489C141.44 16.2679 141.958 16.8397 142.349 17.5641C142.747 18.2885 142.945 19.1941 142.945 20.2807V31.2324H139.238V28.9846H139.11C138.876 29.4391 138.546 29.8652 138.119 30.263C137.7 30.6536 137.171 30.9696 136.532 31.2111C135.9 31.4455 135.158 31.5627 134.306 31.5627ZM135.307 28.7289C136.081 28.7289 136.752 28.5762 137.32 28.2708C137.889 27.9583 138.325 27.5463 138.631 27.035C138.943 26.5236 139.1 25.9661 139.1 25.3624V23.4341C138.979 23.5336 138.773 23.6259 138.482 23.7111C138.198 23.7963 137.878 23.8709 137.523 23.9348C137.168 23.9988 136.816 24.0556 136.468 24.1053C136.12 24.155 135.818 24.1976 135.563 24.2331C134.987 24.3113 134.472 24.4391 134.018 24.6167C133.563 24.7942 133.205 25.0428 132.942 25.3624C132.679 25.6749 132.548 26.0797 132.548 26.5769C132.548 27.2871 132.807 27.8233 133.325 28.1855C133.844 28.5478 134.504 28.7289 135.307 28.7289ZM159.757 19.1941L156.241 19.5776C156.142 19.2225 155.968 18.8887 155.719 18.5762C155.477 18.2637 155.151 18.0115 154.739 17.8198C154.327 17.628 153.823 17.5321 153.226 17.5321C152.423 17.5321 151.749 17.7061 151.202 18.0542C150.662 18.4022 150.396 18.8532 150.403 19.4071C150.396 19.883 150.57 20.2701 150.925 20.5684C151.287 20.8667 151.884 21.1117 152.715 21.3034L155.506 21.9C157.054 22.2338 158.205 22.763 158.958 23.4874C159.718 24.2118 160.101 25.16 160.108 26.3319C160.101 27.3617 159.799 28.2708 159.203 29.0591C158.613 29.8404 157.793 30.4512 156.742 30.8915C155.691 31.3319 154.483 31.552 153.119 31.552C151.117 31.552 149.504 31.133 148.283 30.2949C147.061 29.4498 146.333 28.2743 146.099 26.7686L149.86 26.4064C150.03 27.1451 150.392 27.7026 150.946 28.079C151.5 28.4554 152.221 28.6436 153.109 28.6436C154.025 28.6436 154.76 28.4554 155.314 28.079C155.875 27.7026 156.156 27.2374 156.156 26.6834C156.156 26.2147 155.975 25.8276 155.612 25.5222C155.257 25.2168 154.703 24.9824 153.95 24.8191L151.159 24.2331C149.59 23.9064 148.428 23.356 147.676 22.5819C146.923 21.8006 146.55 20.8134 146.557 19.6202C146.55 18.6117 146.823 17.7381 147.377 16.9995C147.938 16.2537 148.716 15.6784 149.71 15.2736C150.712 14.8617 151.866 14.6557 153.173 14.6557C155.09 14.6557 156.6 15.0641 157.7 15.8809C158.808 16.6976 159.494 17.802 159.757 19.1941ZM167.145 21.6444V31.2324H163.288V9.41424H167.059V17.6493H167.251C167.635 16.726 168.228 15.998 169.03 15.4654C169.84 14.9256 170.87 14.6557 172.12 14.6557C173.256 14.6557 174.247 14.8936 175.092 15.3695C175.937 15.8453 176.591 16.5414 177.052 17.4576C177.521 18.3738 177.756 19.4924 177.756 20.8134V31.2324H173.899V21.41C173.899 20.3091 173.615 19.4533 173.047 18.8425C172.486 18.2246 171.697 17.9157 170.682 17.9157C170 17.9157 169.389 18.0648 168.849 18.3631C168.317 18.6543 167.898 19.0769 167.592 19.6309C167.294 20.1848 167.145 20.856 167.145 21.6444Z"
        fill="#A6A6A6" />
    <rect x="11" y="0.232422" width="12" height="9" fill="#A6A6A6" />
    <rect y="23.2324" width="34" height="9" fill="#A6A6A6" />
    <rect x="24" y="14.2324" width="10" height="18" fill="#A6A6A6" />
    <rect y="14.2324" width="10" height="18" fill="#A6A6A6" />
</svg>
    